# xmcd CD database file
# Copyright (C) 1993-1998 Ti Kan
#
# Track frame offsets:
#  150
#  14726
#  29537
#  49529
#  61348
#  75138
#  82652
#  95432
#  110382
#  119328
#  139344
#  150683
#  175163
#  183981
#  202732
#  212203
#  234091
#  246066
#  256641
#
# Disc length: 3476 seconds
#
# Revision: 1
# Processed by: cddbd v1.4b41PL1 Copyright (c) Steve Scherf et al.
# Submitted via: CDWizzard Release:4.35
#
DISCID=e60d9213
DTITLE=Various Artist - (The Caligula Effect: A Compilation)
DYEAR=1900
DGENRE=
TTITLE0=Encyclopedia of American Traitiors - Linchpin
TTITLE1=Nit-Pic - 1999
TTITLE2=Canephora - Piano Wire
TTITLE3=Bessemer Process - Cure For Media
TTITLE4=Madison - Ear of God
TTITLE5=Enemy Soil - Elitist Disciples
TTITLE6=Fuse 12 - Lost Wax
TTITLE7=December - 8 Years
TTITLE8=Carlisle - Man-sized Squirrel
TTITLE9=I Bleed For This? - Leading the Blind
TTITLE10=Hand of God - g-7-11
TTITLE11=Bear Witness - Substance Subsistence
TTITLE12=Amalgamation - Future Cars
TTITLE13=Built in Enemy - Identify the Enemy
TTITLE14=Reversal of Man - Silver Pieces of Eight 
TTITLE15=12 Hour Turn - Out of this Furnance
TTITLE16=Stillguard - Void
TTITLE17=Manual 7 - Down Your Veins
TTITLE18=PIGDESTROYER - Frailty in Numbers
EXTD=
EXTT0=
EXTT1=
EXTT2=
EXTT3=
EXTT4=
EXTT5=
EXTT6=
EXTT7=
EXTT8=
EXTT9=
EXTT10=
EXTT11=
EXTT12=
EXTT13=
EXTT14=
EXTT15=
EXTT16=
EXTT17=
EXTT18=
PLAYORDER=
